/vscmnt/brussel_pixiu_data/_data_brussel/112/vsc11236/PredSimResults/SUBJ09mtu3D/weighted-LRposFixed/expIG/worker_03.mot
version=1
nRows=8
nColumns=50
inDegrees=yes
endheader
                time	         pelvis_tilt	         pelvis_list	     pelvis_rotation	           pelvis_tx	           pelvis_ty	           pelvis_tz	       hip_flexion_r	     hip_adduction_r	      hip_rotation_r	        knee_angle_r	       ankle_angle_r	         mtp_angle_r	       hip_flexion_l	     hip_adduction_l	      hip_rotation_l	        knee_angle_l	       ankle_angle_l	         mtp_angle_l	    lumbar_extension	      lumbar_bending	     lumbar_rotation	 ercspn_r/activation	 intobl_r/activation	 extobl_r/activation	    abd_r/activation	    add_r/activation	hamstrings_r/activation	bifemsh_r/activation	glut_max_r/activation	iliopsoas_r/activation	rect_fem_r/activation	  vasti_r/activation	gastroc_r/activation	 soleus_r/activation	tib_ant_r/activation	 ercspn_l/activation	 intobl_l/activation	 extobl_l/activation	    abd_l/activation	    add_l/activation	hamstrings_l/activation	bifemsh_l/activation	glut_max_l/activation	iliopsoas_l/activation	rect_fem_l/activation	  vasti_l/activation	gastroc_l/activation	 soleus_l/activation	tib_ant_l/activation	
          0.64594404	         -8.17216981	          4.88061413	         -7.76151921	          0.74929508	          0.98098757	          0.01295053	         -9.80323342	         -5.04302668	          5.63068845	         -7.22512545	         10.82346823	         27.70971612	         31.80373341	          1.55436640	         -5.34127145	         -2.40745337	          6.62051420	          0.21579036	          0.04107112	         -3.26850172	          3.64289411	          0.04174833	          0.00999999	          0.00999999	          0.05406802	          0.01472214	          0.02787167	          0.13237097	          0.04758932	          0.47566507	          0.00999999	          0.00999999	          0.33500303	          0.28485617	          0.01476988	          0.09032041	          0.12616917	          0.03222048	          0.01672862	          0.08518052	          0.11195214	          0.20492754	          0.00999999	          0.10179614	          0.00999999	          0.00999999	          0.01377710	          0.00999999	          0.27095164	
          0.65886292	         -8.26182388	          4.79792331	         -7.76924386	          0.76763503	          0.97877436	          0.01267026	        -10.01966382	         -4.98671396	          5.25874371	         -8.65684203	         10.14610485	         29.72995696	         31.90460318	          1.63921060	         -5.25107238	         -4.12446851	          6.17799996	          0.21277819	          0.35007276	         -3.57114991	          3.72742185	          0.08297219	          0.00999999	          0.00999999	          0.04448891	          0.04641071	          0.02293371	          0.10891909	          0.03915803	          0.48072934	          0.00999999	          0.00999999	          0.30820741	          0.26630893	          0.01215313	          0.07431854	          0.10381605	          0.02651205	          0.01376485	          0.12416968	          0.09711486	          0.16862097	          0.08374655	          0.08376114	          0.00999999	          0.00999999	          0.02335591	          0.01572663	          0.28581980	
          0.67178180	         -8.33100355	          4.71018906	         -7.72530383	          0.78637310	          0.97683641	          0.01232758	        -10.06905607	         -4.90986678	          4.85933732	        -10.46189986	          9.30659709	         31.82382797	         31.79327449	          1.70646939	         -5.14510802	         -5.69189473	          5.68013214	          0.20035946	          0.67849010	         -3.88054913	          3.77821731	          0.08406801	          0.00999999	          0.00999999	          0.03660690	          0.03818822	          0.02043165	          0.08962213	          0.03222048	          0.46517038	          0.00999999	          0.01476988	          0.26734865	          0.23618744	          0.00999999	          0.06659430	          0.08542319	          0.02181497	          0.08035881	          0.10967017	          0.08724518	          0.13874675	          0.12552374	          0.06892136	          0.00999999	          0.00999999	          0.01921799	          0.01294038	          0.33905960	
          0.68470068	         -8.38301370	          4.61208982	         -7.63196423	          0.80516529	          0.97543922	          0.01189504	         -9.85457542	         -4.80479676	          4.44627232	        -12.75227593	          8.24388645	         33.94331145	         31.51517693	          1.78161072	         -5.06102103	         -6.96494821	          5.02599737	          0.17417630	          0.99082580	         -4.18773062	          3.79239899	          0.11406778	          0.00999999	          0.00999999	          0.03012134	          0.04406303	          0.02060295	          0.07374397	          0.02651205	          0.44078189	          0.00999999	          0.01215313	          0.21998307	          0.19434262	          0.00999999	          0.06928088	          0.07028894	          0.01795006	          0.13222788	          0.12357888	          0.07441155	          0.11416529	          0.17330276	          0.05671071	          0.00999999	          0.00999999	          0.01581318	          0.01064776	          0.37248632	
          0.69761956	         -8.41725414	          4.51224285	         -7.49393443	          0.82372100	          0.97474634	          0.01138173	         -9.30310752	         -4.67946439	          4.02503633	        -15.61651755	          6.95088005	         35.92226375	         31.17621754	          1.87419088	         -4.97801025	         -8.17506194	          4.55509934	          0.14512476	          1.26075721	         -4.50364012	          3.76887522	          0.14069809	          0.00999999	          0.00999999	          0.02478481	          0.06047384	          0.02215118	          0.06067891	          0.02181497	          0.39535635	          0.00999999	          0.00999999	          0.18100914	          0.15991136	          0.00999999	          0.06827908	          0.05783600	          0.01476988	          0.16183883	          0.12616917	          0.06412272	          0.09393887	          0.20030686	          0.04666340	          0.00999999	          0.02936870	          0.01301159	          0.00999999	          0.39455343	
          0.71053844	         -8.43311670	          4.40746131	         -7.31370650	          0.84186256	          0.97482326	          0.01081147	         -8.38975539	         -4.53376499	          3.59350453	        -19.06344873	          5.45122179	         37.44216647	         30.80319695	          1.97752322	         -4.88016960	         -9.34984014	          4.27626379	          0.12297506	          1.47384990	         -4.82534670	          3.70635601	          0.16004894	          0.00999999	          0.00999999	          0.02039373	          0.07991393	          0.02127260	          0.04992856	          0.01795006	          0.32531192	          0.00999999	          0.00999999	          0.14894014	          0.13158021	          0.00999999	          0.05908114	          0.04758932	          0.01215313	          0.16885136	          0.10381605	          0.05694253	          0.07729593	          0.20376500	          0.03839614	          0.00999999	          0.11013771	          0.01070636	          0.00999999	          0.40193104	
          0.72345732	         -8.43191525	          4.28411444	         -7.09352371	          0.85951917	          0.97573259	          0.01022066	         -7.13640611	         -4.36173926	          3.14412217	        -23.02672963	          3.83317102	         37.99668627	         30.33315899	          2.08134146	         -4.74652218	        -10.35669355	          4.14623187	          0.10184456	          1.62640759	         -5.13740328	          3.60550068	          0.17348263	          0.00999999	          0.00999999	          0.01678062	          0.09398942	          0.01750378	          0.06413161	          0.01476988	          0.26767711	          0.00999999	          0.00999999	          0.12255274	          0.10826842	          0.00999999	          0.04861386	          0.03915803	          0.00999999	          0.16495368	          0.08542319	          0.05318531	          0.06360157	          0.19149976	          0.03159358	          0.00999999	          0.17492189	          0.00999999	          0.00999999	          0.39770126	
          0.73637620	         -8.41590118	          4.12747264	         -6.83298749	          0.87670072	          0.97746733	          0.00964261	         -5.59284291	         -4.15602499	          2.68791815	        -27.37008220	          2.03037305	         37.45194064	         29.70129485	          2.17421476	         -4.55989332	        -11.08367919	          4.17136928	          0.08807214	          1.72305374	         -5.42278584	          3.46558624	          0.17476893	          0.00999999	          0.00999999	          0.01380763	          0.10877793	          0.01440267	          0.06826358	          0.01215313	          0.22025333	          0.00999999	          0.00999999	          0.10084034	          0.08908674	          0.02963294	          0.04000105	          0.03222048	          0.00999999	          0.15915577	          0.07028895	          0.05016892	          0.05233342	          0.17048077	          0.02599621	          0.00999999	          0.20973208	          0.00999999	          0.00999999	          0.38444595	
